<?xml version="1.0" standalone="no"?>
<!DOCTYPE svg PUBLIC "-//W3C//DTD SVG 20010904//EN"
 "http://www.w3.org/TR/2001/REC-SVG-20010904/DTD/svg10.dtd">
<svg version="1.0" xmlns="http://www.w3.org/2000/svg"
 width="300.000000pt" height="234.000000pt" viewBox="0 0 300.000000 234.000000"
 preserveAspectRatio="xMidYMid meet">
<metadata>
Created by potrace 1.10, written by Peter Selinger 2001-2011
</metadata>
<g transform="translate(0.000000,234.000000) scale(0.100000,-0.100000)"
fill="#00331b" stroke="none">
<path d="M1366 2014 c-144 -35 -297 -158 -365 -295 -75 -148 -89 -298 -41
-434 47 -136 161 -260 304 -331 94 -46 99 -48 205 -52 91 -4 121 -1 178 16
192 59 359 235 398 419 43 201 -8 375 -150 519 -145 145 -340 204 -529 158z
m249 -49 c187 -49 348 -213 386 -393 16 -80 7 -224 -20 -290 -89 -221 -333
-369 -550 -334 -79 13 -212 78 -275 134 -224 196 -226 547 -5 751 73 68 146
113 218 133 64 17 176 17 246 -1z m-228 -1031 c-3 -3 -12 -4 -19 -1 -8 3 -5 6
6 6 11 1 17 -2 13 -5z"/>
<path d="M1397 1904 c-4 -4 -7 -74 -7 -156 0 -158 9 -196 50 -218 19 -10 20
-21 20 -275 l0 -265 37 0 36 0 -7 256 -7 256 40 44 41 44 0 155 c0 131 -2 157
-15 162 -9 3 -18 3 -20 1 -3 -2 -8 -64 -11 -137 -5 -88 -11 -130 -18 -128 -7
2 -12 50 -13 133 -1 123 -2 129 -22 132 -20 3 -21 0 -21 -127 0 -124 -1 -131
-20 -131 -18 0 -20 8 -22 127 -3 106 -6 128 -18 131 -9 1 -19 0 -23 -4z m83
-276 c15 9 26 10 41 1 15 -8 24 -8 32 0 42 42 19 -30 -27 -82 l-33 -38 -36 41
c-42 45 -53 100 -17 78 16 -10 24 -10 40 0z m17 -150 c-3 -8 -6 -5 -6 6 -1 11
2 17 5 13 3 -3 4 -12 1 -19z m0 -235 c-2 -16 -4 -3 -4 27 0 30 2 43 4 28 2
-16 2 -40 0 -55z m2 -115 c-1 -56 -4 -72 -8 -48 -6 35 -3 130 5 130 2 0 3 -37
3 -82z"/>
<path d="M1197 1745 c-21 -21 -8 -79 19 -83 16 -2 25 5 34 28 11 27 10 33 -5
50 -22 24 -29 25 -48 5z m36 -46 c-6 -6 -17 -8 -24 -3 -9 5 -8 9 7 14 23 9 31
3 17 -11z"/>
<path d="M1742 1748 c-35 -35 4 -82 48 -58 25 13 26 32 2 53 -22 20 -34 21
-50 5z"/>
<path d="M1800 1622 l-45 -17 17 -34 17 -34 10 24 c11 31 28 45 63 54 29 7 29
26 0 24 -9 0 -37 -8 -62 -17z"/>
<path d="M1080 1540 c-26 -26 -35 -66 -22 -95 14 -31 66 -88 114 -126 l39 -32
56 54 c88 87 106 146 58 194 -29 30 -64 32 -98 5 l-26 -21 -21 21 c-26 26 -74
26 -100 0z m91 -26 c28 -14 34 -14 64 0 18 9 40 16 48 16 15 0 46 -30 31 -30
-5 0 -4 -4 3 -8 20 -12 -11 -79 -57 -122 -23 -22 -47 -40 -52 -40 -5 0 -33 23
-63 51 -57 53 -74 94 -55 128 13 25 40 27 81 5z"/>
<path d="M1663 1534 c-22 -23 -25 -31 -20 -77 4 -49 8 -55 72 -113 56 -51 71
-60 81 -49 8 7 29 22 47 34 38 23 82 82 92 122 19 78 -88 147 -130 83 -18 -29
-15 -43 5 -19 20 24 67 19 86 -10 16 -24 16 -28 -1 -65 -23 -51 -80 -110 -107
-110 -14 0 -18 5 -14 15 3 8 1 15 -4 15 -5 0 -25 14 -45 31 -28 25 -35 38 -35
68 0 46 14 61 59 61 33 0 34 0 16 20 -25 28 -70 26 -102 -6z"/>
<path d="M1724 1502 c-28 -18 -25 -50 7 -86 17 -20 38 -36 47 -36 12 0 8 9
-14 33 -22 24 -29 40 -28 65 1 17 2 32 1 32 -1 0 -7 -4 -13 -8z"/>
<path d="M1354 1285 c-8 -19 -5 -22 21 -27 14 -2 20 3 20 17 0 24 -33 33 -41
10z"/>
<path d="M1618 1293 c-18 -5 -31 -30 -23 -44 8 -12 55 20 55 37 0 14 -3 15
-32 7z"/>
<path d="M1267 1254 c-9 -10 8 -38 58 -94 49 -55 59 -81 23 -58 -57 37 -138
72 -146 63 -3 -2 3 -16 12 -29 24 -37 71 -58 122 -55 24 2 46 0 50 -4 17 -17
21 -4 12 41 -17 86 -18 92 -28 92 -6 0 -8 -12 -5 -27 5 -27 5 -27 -5 -5 -5 13
-8 28 -5 33 3 4 -12 17 -34 29 -45 22 -45 22 -54 14z m67 -60 c5 -14 4 -15 -9
-4 -17 14 -19 20 -6 20 5 0 12 -7 15 -16z"/>
<path d="M1670 1234 c-36 -30 -66 -86 -71 -129 l-4 -30 55 4 c61 4 130 34 130
56 0 24 -42 18 -103 -15 -31 -16 -60 -30 -63 -30 -4 0 16 24 45 54 42 46 71
90 71 112 0 13 -32 1 -60 -22z m10 -34 c-26 -36 -47 -51 -31 -22 12 22 39 52
47 52 3 0 -4 -13 -16 -30z"/>
<path d="M1170 1215 c0 -10 10 -15 28 -15 15 0 33 -5 40 -12 21 -21 22 -2 2
20 -24 25 -70 30 -70 7z"/>
<path d="M1758 1214 c-41 -21 -34 -33 15 -27 47 6 63 16 53 32 -10 15 -36 13
-68 -5z"/>
<path d="M669 1992 c-1 -4 0 -22 1 -41 1 -19 -4 -87 -11 -151 -11 -103 -10
-126 4 -184 19 -79 65 -152 141 -226 32 -30 71 -80 87 -110 57 -106 68 -110
36 -14 -26 82 -28 97 -24 194 6 118 39 240 83 305 14 21 22 41 17 44 -5 3 -33
25 -63 48 -55 41 -269 148 -271 135z m90 -63 c25 -11 53 -25 61 -30 8 -5 23
-12 32 -15 17 -6 17 -8 1 -35 -10 -16 -20 -29 -23 -29 -4 0 -20 16 -37 35 -17
19 -36 35 -41 35 -5 0 -21 -12 -36 -26 l-26 -27 0 57 c0 64 3 65 69 35z m126
-129 c-19 -38 -29 -49 -35 -40 -15 25 34 120 52 102 6 -6 -1 -30 -17 -62z
m-84 8 c76 -96 83 -121 83 -305 1 -193 -15 -204 -23 -16 l-6 128 -75 40 c-42
23 -76 48 -78 58 -5 25 9 21 78 -19 33 -20 63 -34 66 -31 9 9 -36 88 -77 132
-21 23 -39 47 -39 54 0 26 32 7 71 -41z m159 -22 c-11 -5 -21 -25 -25 -50 -3
-22 -12 -54 -20 -71 l-13 -30 -1 27 c-1 15 -5 38 -11 53 -8 20 -6 35 10 66 11
21 25 39 31 39 6 0 7 6 3 13 -4 6 5 1 18 -13 23 -23 24 -26 8 -34z m-180 -54
c-6 -2 -17 2 -25 8 -9 7 -27 10 -45 7 -28 -6 -29 -5 -28 31 1 20 6 40 11 44 6
4 30 -14 54 -40 24 -26 39 -48 33 -50z m-12 -100 c37 -19 62 -39 62 -48 0 -12
-6 -15 -22 -9 -51 15 -68 17 -68 6 0 -6 6 -11 14 -11 21 0 83 -38 90 -55 3 -8
4 -15 1 -15 -7 0 -98 50 -113 62 -13 11 -15 10 -9 -4 3 -10 2 -18 -3 -18 -9 0
-14 22 -11 43 0 4 -3 7 -8 7 -5 0 -11 12 -14 27 -5 28 1 56 12 51 3 -2 34 -18
69 -36z m49 -147 c1 0 6 -19 11 -43 9 -39 9 -41 -9 -32 -20 11 -45 50 -41 63
1 5 -2 6 -7 3 -10 -6 -24 9 -34 37 -6 16 -2 16 36 -5 23 -12 43 -23 44 -23z"/>
<path d="M2234 1955 c-142 -67 -264 -156 -237 -173 19 -13 56 -96 74 -167 11
-43 18 -59 18 -41 1 47 31 150 50 171 10 11 32 41 50 68 18 26 38 47 46 47 23
0 18 -19 -14 -56 -35 -39 -85 -123 -79 -130 3 -2 35 10 73 27 64 29 84 32 71
11 -3 -5 -39 -26 -80 -46 l-75 -37 -5 -52 c-3 -29 -8 -80 -11 -115 -3 -35 -22
-109 -41 -164 -19 -55 -33 -102 -31 -105 6 -6 41 51 65 107 11 25 52 77 90
117 40 41 82 97 98 130 29 58 29 59 29 255 0 109 0 198 0 197 0 0 -41 -20 -91
-44z m57 -27 c1 -13 3 -52 5 -88 1 -36 5 -75 8 -88 4 -20 3 -21 -17 -10 -12 6
-24 10 -27 9 -3 -2 -13 -7 -22 -12 -30 -16 -22 22 12 59 36 40 37 55 7 75 -21
13 -26 13 -49 -1 -14 -8 -33 -28 -42 -44 -25 -41 -35 -36 -51 29 -3 10 145 92
168 93 4 0 8 -10 8 -22z m-191 -110 c11 -18 20 -44 20 -58 0 -23 -2 -21 -25
15 -22 37 -33 75 -20 75 3 0 14 -15 25 -32z m-32 -47 c23 -41 30 -87 11 -75
-13 7 -48 82 -49 102 0 23 16 12 38 -27z m227 -137 c-1 -32 -7 -51 -20 -60
-10 -8 -15 -17 -12 -21 4 -3 0 -18 -9 -32 -20 -32 -96 -111 -107 -111 -4 0 -7
29 -6 65 1 58 5 68 31 94 16 16 25 32 20 35 -6 3 -13 -1 -16 -10 -3 -8 -10
-12 -16 -9 -6 4 -3 13 8 24 22 23 85 54 76 38 -4 -7 4 -2 17 11 13 12 26 22
30 22 3 0 5 -21 4 -46z"/>
<path d="M2210 1610 c0 -5 7 -10 16 -10 8 0 12 5 9 10 -3 6 -10 10 -16 10 -5
0 -9 -4 -9 -10z"/>
<path d="M2230 1541 c0 -6 5 -13 12 -17 6 -4 8 -3 4 4 -3 5 0 13 6 15 8 3 6 6
-4 6 -10 1 -18 -3 -18 -8z"/>
<path d="M978 1955 c-9 -21 -8 -28 7 -45 23 -26 31 -25 50 4 13 19 14 29 5 45
-15 29 -48 27 -62 -4z"/>
<path d="M1944 1944 c-8 -30 14 -58 38 -49 23 9 30 33 18 56 -16 28 -48 24
-56 -7z"/>
<path d="M537 1542 c-10 -10 -17 -32 -17 -48 0 -57 43 -71 85 -29 30 29 31 49
5 75 -25 25 -52 26 -73 2z m61 -34 c4 -21 -25 -49 -43 -42 -21 8 -19 41 3 53
21 13 36 9 40 -11z"/>
<path d="M2377 1542 c-23 -25 -22 -65 2 -86 26 -24 60 -17 84 17 l21 27 -21
28 c-25 33 -63 40 -86 14z m83 -35 c0 -21 -22 -37 -52 -37 -32 0 -38 23 -10
39 24 15 62 13 62 -2z"/>
<path d="M636 1428 c-14 -19 -14 -24 -2 -36 11 -11 18 -11 35 -3 24 13 27 31
9 49 -17 17 -25 15 -42 -10z"/>
<path d="M2302 1438 c-18 -18 -14 -36 8 -48 25 -13 40 -5 40 20 0 25 -33 43
-48 28z"/>
<path d="M450 1371 c0 -6 13 -41 30 -77 25 -57 32 -65 45 -54 19 16 20 11 -15
55 -17 21 -28 40 -26 43 7 6 69 -47 96 -80 l21 -28 -40 -6 c-39 -6 -51 -17
-32 -28 5 -3 26 0 48 8 34 12 43 12 68 -3 l30 -16 -62 -3 c-35 -2 -63 -7 -63
-13 0 -17 26 -21 80 -11 49 9 55 8 74 -13 12 -12 31 -27 44 -34 26 -14 29 -31
5 -29 -52 4 -113 -3 -113 -13 0 -9 23 -10 80 -6 44 4 87 4 95 1 21 -8 9 -24
-18 -24 -34 0 -97 -20 -97 -30 0 -16 46 -11 98 9 l48 19 50 -31 c55 -34 220
-91 241 -83 25 10 6 22 -84 55 -48 17 -117 50 -153 74 l-65 42 3 55 c4 65 -10
110 -35 110 -13 0 -14 -3 -5 -12 7 -7 12 -40 12 -77 0 -63 0 -64 -19 -47 -16
15 -18 27 -14 72 4 36 2 54 -5 54 -6 0 -12 -23 -14 -50 -3 -48 -4 -50 -22 -37
-17 12 -18 19 -8 57 6 27 7 51 2 66 -16 41 -31 27 -29 -26 2 -27 0 -52 -2 -54
-3 -3 -25 12 -49 34 -35 31 -41 41 -32 53 16 19 -11 37 -88 61 -30 10 -61 20
-67 22 -7 3 -13 1 -13 -5z m144 -76 c3 -8 2 -15 -3 -15 -5 0 -14 7 -21 15 -10
12 -10 15 3 15 8 0 17 -7 21 -15z"/>
<path d="M2464 1351 c-74 -27 -95 -42 -88 -64 4 -13 -4 -28 -26 -48 -45 -41
-53 -38 -48 21 4 43 3 50 -11 48 -19 -4 -27 -83 -11 -103 7 -8 2 -19 -15 -35
-14 -13 -27 -21 -30 -18 -3 3 0 28 6 57 11 53 8 81 -11 81 -6 0 -10 -30 -10
-73 0 -65 -3 -76 -25 -97 -14 -13 -27 -22 -29 -19 -2 2 0 24 4 49 13 68 12
100 -4 100 -20 0 -26 -23 -26 -99 l0 -67 -41 -28 c-23 -14 -44 -24 -47 -21 -3
3 5 30 17 60 22 52 23 85 3 85 -12 0 -52 -87 -52 -115 0 -55 -15 -71 -85 -91
-61 -17 -87 -35 -72 -50 10 -10 141 39 198 73 44 27 61 32 75 25 27 -15 105
-34 111 -28 13 13 -12 25 -63 32 -54 6 -55 7 -37 25 17 16 22 17 73 3 68 -18
113 -18 108 -1 -3 6 -31 15 -64 19 -80 11 -83 12 -50 30 25 13 36 13 89 1 59
-14 93 -11 83 6 -3 4 -33 11 -67 15 -53 6 -59 9 -48 23 11 12 28 14 81 11 48
-4 71 -2 78 7 9 11 -1 13 -50 12 -36 -1 -59 2 -57 8 2 6 35 10 72 10 85 1 103
22 23 27 -52 3 -51 7 6 24 16 5 31 15 34 22 3 10 -3 10 -27 -2 -48 -25 -41 5
11 43 50 37 66 40 46 9 -19 -29 -28 -77 -16 -84 7 -4 68 112 68 131 0 9 -23 4
-76 -14z"/>
<path d="M2340 1289 c-13 -24 -4 -41 10 -19 10 16 13 40 5 40 -2 0 -9 -9 -15
-21z"/>
<path d="M650 1292 c0 -5 7 -16 16 -23 14 -12 16 -11 13 5 -4 20 -29 35 -29
18z"/>
<path d="M877 1146 c-2 -22 0 -45 4 -50 5 -6 9 3 9 21 0 55 18 46 36 -18 l17
-61 18 23 c18 23 19 23 19 3 0 -11 13 -30 30 -42 31 -23 40 -27 40 -14 -1 15
-119 154 -143 167 -25 13 -25 12 -30 -29z"/>
<path d="M638 1123 c-38 -4 -54 -23 -20 -23 44 0 93 13 80 21 -7 5 -15 8 -18
7 -3 -1 -22 -3 -42 -5z"/>
<path d="M1956 1050 c-44 -58 -51 -84 -9 -37 23 26 67 97 60 97 -3 0 -26 -27
-51 -60z"/>
<path d="M547 983 c-12 -11 -8 -40 7 -52 18 -15 46 -4 46 18 0 30 -35 52 -53
34z"/>
<path d="M2396 975 c-14 -37 26 -68 45 -34 8 15 7 24 -2 35 -15 18 -35 18 -43
-1z"/>
<path d="M750 971 c0 -12 36 -21 85 -21 49 0 85 9 85 21 0 5 -38 9 -85 9 -47
0 -85 -4 -85 -9z"/>
<path d="M2040 967 c0 -8 7 -18 16 -21 23 -9 97 -7 112 3 16 9 -1 15 -80 26
-39 6 -48 4 -48 -8z"/>
<path d="M1200 664 l0 -134 84 0 84 0 4 30 5 30 -64 0 c-61 0 -64 1 -58 21 4
12 4 58 0 103 -6 77 -8 81 -31 82 l-24 2 0 -134z m44 -83 c17 -19 17 -19 -3
-14 -12 3 -21 12 -21 19 0 18 4 18 24 -5z"/>
<path d="M1640 764 l0 -31 55 5 c30 2 55 1 55 -2 0 -4 -27 -42 -59 -85 -90
-120 -91 -116 39 -117 l110 -1 0 30 0 29 -60 -4 c-33 -1 -60 1 -60 5 0 4 25
39 55 77 30 38 59 80 65 94 l9 25 -105 3 -104 3 0 -31z m153 -20 c-3 -8 -7
-14 -10 -14 -2 0 -11 6 -18 14 -12 11 -10 14 10 14 16 0 22 -5 18 -14z m-90
-159 c7 -16 -8 -29 -23 -20 -10 6 -2 35 10 35 4 0 10 -7 13 -15z"/>
<path d="M1880 765 l0 -30 55 3 c30 2 55 0 55 -5 0 -4 -24 -40 -53 -78 -30
-39 -56 -81 -60 -95 l-6 -25 108 -2 108 -1 1 29 1 29 -66 0 -65 0 28 37 c51
67 94 135 94 148 0 10 -25 14 -100 17 l-100 3 0 -30z m150 -19 c0 -8 -6 -18
-12 -22 -7 -4 -10 -4 -6 1 4 4 3 14 -3 22 -9 10 -8 13 5 13 9 0 16 -6 16 -14z
m-90 -184 c-29 -5 -36 4 -19 24 12 14 14 14 27 -3 11 -16 11 -18 -8 -21z"/>
<path d="M500 660 l0 -130 31 0 c30 0 30 1 28 48 l-3 47 52 0 c50 -1 52 0 52
27 0 27 -2 28 -54 28 -54 0 -55 1 -52 28 3 27 4 27 68 24 l65 -4 0 31 0 31
-94 0 -93 0 0 -130z m50 -4 c0 -8 -4 -18 -10 -21 -5 -3 -10 3 -10 14 0 12 5
21 10 21 6 0 10 -6 10 -14z"/>
<path d="M740 660 l0 -130 30 0 30 0 0 130 0 130 -30 0 -30 0 0 -130z m27 -22
c-3 -8 -6 -5 -6 6 -1 11 2 17 5 13 3 -3 4 -12 1 -19z"/>
<path d="M850 760 c0 -29 2 -31 36 -28 l36 3 -1 -102 -2 -103 37 0 37 0 -6
106 -5 106 39 -5 c38 -5 39 -4 39 24 l0 29 -105 0 -105 0 0 -30z m125 -6 c-8
-6 -15 -17 -15 -25 0 -8 -6 -6 -15 7 -20 27 -19 29 15 29 25 0 28 -2 15 -11z
m-18 -166 c-2 -13 -4 -5 -4 17 -1 22 1 32 4 23 2 -10 2 -28 0 -40z"/>
<path d="M1412 662 l-2 -127 89 0 89 0 4 28 5 27 -64 0 c-61 0 -63 1 -63 25 0
23 3 25 50 25 47 0 50 2 50 25 0 23 -3 25 -50 25 -47 0 -50 1 -50 26 0 25 1
26 61 22 61 -3 62 -3 65 25 l3 27 -92 0 -92 0 -3 -128z m48 3 c0 -8 -4 -17
-10 -20 -6 -4 -10 5 -10 20 0 15 4 24 10 20 6 -3 10 -12 10 -20z m-5 -85 c3
-5 1 -10 -4 -10 -6 0 -11 5 -11 10 0 6 2 10 4 10 3 0 8 -4 11 -10z"/>
<path d="M2128 660 l3 -130 88 0 88 0 -5 30 c-4 30 -5 30 -64 30 -51 0 -59 2
-54 16 3 9 6 20 6 26 0 6 19 9 45 6 44 -3 45 -2 45 26 0 28 0 29 -51 24 -49
-5 -50 -5 -47 21 3 24 6 25 56 22 l52 -2 0 30 0 31 -82 0 -83 0 3 -130z m72
96 c0 -2 -9 -6 -20 -9 -11 -3 -20 -1 -20 4 0 5 9 9 20 9 11 0 20 -2 20 -4z
m-20 -97 c0 -6 -4 -7 -10 -4 -5 3 -10 11 -10 16 0 6 5 7 10 4 6 -3 10 -11 10
-16z m0 -90 c0 -5 -4 -9 -10 -9 -5 0 -10 7 -10 16 0 8 5 12 10 9 6 -3 10 -10
10 -16z"/>
<path d="M2324 760 c1 -28 4 -30 39 -30 l39 0 -4 -99 -3 -100 28 1 27 1 0 104
0 104 35 -7 c34 -6 35 -5 35 25 l0 31 -99 0 -98 0 1 -30z m116 -15 c-10 -12
-16 -13 -26 -4 -20 16 -18 19 12 19 22 0 25 -2 14 -15z"/>
<path d="M382 658 c3 -25 17 -32 37 -19 12 8 12 12 2 25 -20 24 -43 20 -39 -6z"/>
<path d="M327 664 c-8 -8 1 -24 14 -24 5 0 9 7 9 15 0 15 -12 20 -23 9z"/>
<path d="M1080 654 c0 -11 8 -14 27 -12 39 4 42 28 4 28 -21 0 -31 -5 -31 -16z"/>
<path d="M2576 661 c-3 -5 1 -14 9 -21 12 -10 18 -10 30 0 8 7 15 16 15 21 0
12 -47 12 -54 0z"/>
<path d="M2650 654 c0 -17 22 -14 28 4 2 7 -3 12 -12 12 -9 0 -16 -7 -16 -16z"/>
<path d="M790 485 c0 -8 4 -15 10 -15 5 0 7 7 4 15 -4 8 -8 15 -10 15 -2 0 -4
-7 -4 -15z"/>
<path d="M577 444 c-3 -3 -3 -12 0 -20 4 -10 -3 -14 -21 -14 -14 0 -25 5 -23
11 1 6 -4 14 -10 16 -9 3 -13 -10 -13 -46 0 -28 5 -51 10 -51 6 0 10 9 10 20
0 14 7 20 24 20 19 0 23 -4 19 -20 -3 -11 0 -20 6 -20 7 0 11 21 11 55 0 55
-1 60 -13 49z"/>
<path d="M632 442 c-20 -3 -22 -9 -21 -53 2 -49 2 -49 37 -49 31 0 34 2 28 23
-3 12 -6 26 -6 31 0 4 -8 6 -19 3 -14 -3 -17 0 -14 14 3 11 10 19 15 19 5 0 6
-5 2 -11 -4 -7 1 -10 12 -7 10 2 20 11 22 20 3 17 -2 18 -56 10z m28 -72 c0
-5 -7 -10 -15 -10 -8 0 -15 5 -15 10 0 6 7 10 15 10 8 0 15 -4 15 -10z"/>
<path d="M720 408 c-22 -48 -25 -68 -10 -68 6 0 10 5 10 10 0 17 42 11 56 -7
12 -16 13 -16 14 -1 0 19 -37 108 -45 108 -3 0 -15 -19 -25 -42z m21 -21 c-8
-8 -11 -7 -11 4 0 20 13 34 18 19 3 -7 -1 -17 -7 -23z"/>
<path d="M810 396 l0 -56 34 0 c18 0 39 7 46 15 11 13 7 15 -24 15 -34 0 -36
2 -36 34 0 19 -4 38 -10 41 -6 4 -10 -15 -10 -49z"/>
<path d="M1037 429 c-4 -15 -12 -20 -29 -17 -13 2 -22 9 -20 16 1 6 -2 12 -8
12 -5 0 -10 -22 -10 -50 0 -27 5 -50 10 -50 6 0 10 11 10 25 0 18 5 25 20 25
15 0 20 -7 20 -25 0 -14 5 -25 10 -25 6 0 10 20 10 43 0 24 3 47 7 50 10 10
43 -44 43 -70 0 -13 5 -23 10 -23 6 0 10 10 10 23 0 13 7 32 15 43 17 22 19
44 5 44 -5 0 -10 -7 -10 -15 0 -8 -6 -15 -14 -15 -7 0 -19 7 -26 15 -18 22
-47 18 -53 -6z"/>
<path d="M1208 397 c-2 -28 -4 -52 -4 -53 1 -1 18 1 39 4 45 5 50 22 6 22 -30
0 -31 1 -25 34 4 19 2 37 -3 40 -5 3 -11 -17 -13 -47z"/>
<path d="M1320 445 c0 -4 10 -29 22 -56 22 -48 38 -63 38 -35 0 7 9 25 21 40
11 14 17 30 14 36 -10 16 -19 12 -30 -11 -13 -28 -29 -27 -35 2 -5 20 -30 40
-30 24z"/>
<path d="M1434 428 c3 -13 6 -40 6 -61 0 -23 4 -36 10 -32 19 12 8 115 -12
115 -6 0 -8 -10 -4 -22z"/>
<path d="M1480 400 c0 -30 4 -50 11 -50 7 0 9 10 7 25 -3 14 -2 25 2 25 3 0
17 -11 30 -25 13 -14 26 -25 29 -25 3 0 6 23 7 50 0 28 -3 50 -8 50 -4 0 -8
-15 -8 -32 l-1 -33 -28 33 c-15 17 -31 32 -34 32 -4 0 -7 -22 -7 -50z"/>
<path d="M1605 430 c-23 -25 -13 -67 21 -82 20 -9 28 -9 41 4 9 9 13 24 10 32
-9 23 -27 20 -27 -4 0 -25 -12 -26 -34 -2 -15 18 -15 20 2 36 11 9 26 14 36
10 11 -4 16 -1 16 10 0 23 -43 20 -65 -4z"/>
<path d="M2029 446 c-2 -2 -2 -26 -1 -53 4 -47 4 -48 38 -50 37 -2 44 19 8 25
-29 6 -42 22 -16 22 13 0 22 6 22 15 0 9 -6 12 -15 9 -8 -4 -15 -1 -15 5 0 6
12 11 26 11 14 0 23 4 19 10 -6 10 -57 14 -66 6z"/>
<path d="M2134 425 c-29 -29 -30 -39 -3 -66 22 -22 60 -22 67 0 3 9 -1 11 -15
7 -24 -8 -48 17 -39 39 3 8 17 15 31 15 30 0 33 16 4 23 -14 4 -29 -2 -45 -18z"/>
<path d="M2275 440 c-8 -14 5 -100 16 -100 5 0 6 6 3 14 -4 10 2 16 18 18 43
6 32 78 -13 78 -10 0 -21 -5 -24 -10z m43 -33 c2 -10 -3 -17 -12 -17 -10 0
-16 9 -16 21 0 24 23 21 28 -4z"/>
<path d="M880 425 c0 -8 7 -15 15 -15 10 0 15 -10 15 -34 0 -19 5 -38 11 -42
9 -5 10 6 7 40 -4 34 -2 46 8 46 7 0 16 5 19 10 4 6 -10 10 -34 10 -30 0 -41
-4 -41 -15z"/>
<path d="M1290 390 c0 -27 5 -50 10 -50 6 0 10 23 10 50 0 28 -4 50 -10 50 -5
0 -10 -22 -10 -50z"/>
<path d="M1773 419 c3 -12 0 -22 -9 -26 -18 -7 -18 -27 1 -43 12 -10 21 -10
40 -2 15 7 26 8 30 2 4 -6 11 -10 17 -10 7 0 6 5 -1 14 -8 10 -9 16 -1 21 6 3
8 11 4 16 -4 7 -10 6 -18 0 -9 -7 -17 -4 -30 10 -9 12 -15 24 -11 27 3 4 10 0
15 -8 5 -8 12 -11 15 -8 12 12 -6 28 -32 28 -21 0 -24 -4 -20 -21z m27 -49 c0
-5 -4 -10 -10 -10 -5 0 -10 5 -10 10 0 6 5 10 10 10 6 0 10 -4 10 -10z"/>
<path d="M1926 393 c7 -49 14 -69 14 -40 0 21 9 21 32 0 10 -9 21 -13 26 -8 4
4 1 10 -6 12 -10 4 -10 8 -1 19 6 8 8 25 5 39 -5 21 -12 25 -42 25 l-35 0 7
-47z m54 11 c0 -9 -7 -14 -17 -12 -25 5 -28 28 -4 28 12 0 21 -6 21 -16z"/>
<path d="M2228 385 c5 -67 22 -63 22 6 0 32 -4 49 -12 49 -9 0 -12 -16 -10
-55z"/>
<path d="M2364 424 c3 -9 6 -34 6 -55 0 -30 3 -38 13 -32 6 4 20 6 30 4 14 -2
18 3 15 16 -2 10 -11 17 -21 15 -24 -4 -21 25 3 31 11 3 20 12 20 21 0 12 -10
16 -36 16 -29 0 -35 -3 -30 -16z"/>
<path d="M1187 254 c-3 -4 -2 -16 4 -26 8 -15 14 -17 22 -9 8 8 7 15 -4 26 -8
9 -18 13 -22 9z"/>
<path d="M1855 230 c-3 -5 -1 -10 4 -10 6 0 11 5 11 10 0 6 -2 10 -4 10 -3 0
-8 -4 -11 -10z"/>
</g>
</svg>
