 <svg  version="1.0" xmlns="http://www.w3.org/2000/svg"  width="300.000000pt" height="281.000000pt" viewBox="0 0 300.000000 281.000000"  preserveAspectRatio="xMidYMid meet">  <g transform="translate(0.000000,281.000000) scale(0.100000,-0.100000)" fill="#ffffff" stroke="none"> <path d="M1624 2700 c-12 -5 -25 -21 -28 -37 -11 -40 -35 -63 -66 -63 -19 0 -33 -8 -45 -26 -21 -33 -17 -36 27 -22 31 9 41 8 62 -6 15 -9 26 -23 26 -32 0 -8 7 -28 15 -44 24 -47 85 -39 85 10 0 5 -12 22 -26 39 l-26 31 24 0 c42 0 68 -27 68 -70 0 -51 39 -101 67 -84 40 25 28 81 -24 113 l-38 22 43 -4 c67 -8 88 -27 95 -88 8 -63 37 -100 65 -83 25 16 26 50 2 89 -28 45 -9 47 48 5 42 -30 55 -60 27 -60 -23 0 -30 -46 -11 -75 17 -26 56 -41 81 -31 19 7 19 56 0 82 -25 33 -19 47 13 30 52 -27 91 -71 85 -95 -7 -29 23 -61 58 -61 49 0 49 50 0 94 -29 27 -26 36 12 36 38 0 57 15 57 46 0 53 -74 60 -100 9 -8 -16 -16 -31 -16 -33 -1 -1 -33 15 -73 36 -39 21 -68 42 -64 45 3 4 23 7 43 7 43 0 60 14 60 52 0 21 -6 31 -25 38 -36 14 -72 -4 -92 -45 -9 -19 -19 -35 -22 -35 -3 0 -31 9 -61 19 l-55 19 48 21 c37 16 47 25 47 44 0 56 -61 62 -96 9 -13 -18 -24 -37 -26 -41 -2 -5 -31 -3 -66 2 -65 11 -78 29 -26 35 34 4 64 28 64 52 0 21 -31 50 -53 50 -17 0 -57 -45 -57 -66 0 -24 -46 -45 -92 -42 l-43 3 38 22 c40 24 48 51 21 77 -17 18 -20 18 -50 6z"/> <path d="M985 2652 c-129 -44 -232 -99 -270 -144 -15 -18 -48 -74 -74 -126 -45 -92 -46 -94 -26 -108 38 -29 260 1 388 53 157 63 239 115 340 212 54 52 94 98 90 102 -16 14 -206 49 -271 49 -51 0 -93 -9 -177 -38z m230 -1 c27 -7 23 -10 -54 -34 -107 -34 -291 -107 -311 -123 -20 -17 -89 -47 -118 -51 l-24 -4 27 35 c34 44 102 88 190 122 152 59 219 71 290 55z m143 -38 c2 -8 -6 -13 -22 -13 -13 0 -27 -4 -31 -9 -3 -5 -36 -19 -73 -32 -119 -39 -272 -100 -272 -109 0 -4 20 -10 45 -12 30 -2 45 1 45 9 0 6 24 19 53 29 28 9 80 27 115 40 34 12 62 19 62 16 0 -4 -16 -21 -36 -37 -93 -78 -352 -184 -449 -185 -27 0 -23 5 40 42 64 39 75 42 132 41 44 -2 65 2 74 13 10 12 9 13 -5 8 -9 -4 -37 1 -61 11 l-45 17 -123 -64 c-138 -73 -167 -83 -167 -62 0 19 145 112 245 157 171 77 288 116 398 132 20 3 37 11 37 16 0 14 32 7 38 -8z"/> <path d="M1275 2364 c-14 -15 -16 -47 -13 -283 3 -263 3 -267 28 -316 20 -38 38 -57 78 -80 62 -36 72 -61 72 -188 l0 -88 33 3 32 3 5 114 c5 124 0 113 80 164 81 52 100 119 100 351 0 234 -8 314 -33 327 -15 8 -23 7 -35 -5 -13 -13 -15 -51 -16 -244 -1 -178 -4 -233 -15 -245 -18 -22 -44 -21 -64 1 -14 16 -17 52 -19 258 l-3 239 -24 3 c-13 2 -28 -2 -32 -10 -5 -7 -9 -116 -9 -241 0 -138 -4 -236 -10 -248 -13 -24 -52 -25 -73 -1 -15 16 -17 49 -17 248 0 231 -3 254 -36 254 -7 0 -20 -7 -29 -16z m59 -509 c34 -34 81 -33 119 2 l28 28 17 -21 c9 -12 27 -27 40 -34 20 -10 29 -8 61 14 42 29 51 32 51 13 0 -37 -53 -116 -100 -148 -27 -18 -54 -44 -60 -57 l-11 -25 -35 42 c-20 22 -41 41 -48 41 -31 0 -96 98 -96 145 0 31 3 31 34 0z"/> <path d="M2365 2320 c-13 -20 -18 -246 -7 -297 30 -139 119 -237 245 -267 22 -5 27 -3 27 11 0 21 -172 371 -182 372 -23 3 0 -71 57 -185 35 -71 65 -132 65 -136 1 -40 -111 55 -148 126 -25 48 -27 59 -27 186 0 158 -4 155 105 84 115 -74 191 -191 192 -294 0 -28 -2 -54 -5 -56 -3 -3 -30 44 -62 103 -58 112 -120 193 -149 193 -11 0 -3 -17 30 -62 26 -35 75 -122 110 -195 36 -73 69 -135 74 -138 18 -11 33 49 33 135 1 98 -17 150 -85 238 -52 66 -259 205 -273 182z"/> <path d="M1024 2260 c-131 -68 -262 -178 -339 -285 -63 -89 -132 -236 -152 -325 -22 -99 -22 -318 0 -416 69 -313 325 -589 655 -708 41 -14 78 -24 83 -20 5 3 9 16 9 29 0 20 -9 26 -67 45 -135 44 -274 131 -386 243 -184 184 -266 400 -254 667 6 139 23 207 81 325 88 179 265 347 428 406 57 21 72 37 62 64 -9 24 -37 18 -120 -25z"/> <path d="M1826 2274 c-11 -29 -6 -34 67 -68 235 -112 416 -341 469 -592 61 -298 -42 -617 -267 -822 -98 -90 -226 -165 -365 -215 -51 -18 -66 -28 -68 -45 -7 -48 41 -39 205 40 331 159 520 421 565 784 43 356 -171 731 -519 908 -60 30 -78 32 -87 10z"/> <path d="M456 2236 c-41 -42 -77 -132 -74 -189 1 -43 -43 -163 -55 -150 -4 3 -7 21 -7 39 0 44 -28 112 -51 124 -15 8 -22 5 -35 -15 -29 -44 -4 -144 49 -203 21 -22 21 -24 4 -86 -9 -36 -17 -76 -17 -90 0 -39 -17 -31 -25 12 -14 76 -72 147 -105 127 -17 -10 -11 -84 10 -125 11 -21 38 -53 60 -71 l40 -32 0 -84 c0 -46 -4 -83 -8 -83 -4 0 -14 16 -21 35 -19 52 -84 117 -113 113 -17 -2 -24 -10 -26 -33 -4 -43 29 -89 102 -142 l64 -46 7 -61 c12 -114 24 -154 44 -149 15 4 16 12 9 76 -4 40 -10 84 -12 98 -4 23 2 31 37 55 64 43 87 65 109 107 23 46 21 90 -5 95 -30 6 -91 -42 -109 -84 -39 -95 -37 -94 -37 -17 -1 98 7 114 77 151 75 40 124 94 120 130 -7 57 -94 26 -141 -50 -16 -26 -33 -45 -37 -43 -9 5 35 155 47 165 5 3 29 11 56 18 60 15 117 53 141 93 16 28 17 33 3 46 -23 24 -70 7 -127 -44 -28 -25 -53 -43 -56 -41 -9 10 65 125 90 142 51 33 106 165 92 221 -10 38 -56 34 -100 -9z m21 -108 c-21 -34 -33 -46 -35 -35 -4 22 36 87 53 87 10 0 4 -17 -18 -52z m-197 -176 c0 -7 -4 -10 -10 -7 -5 3 -10 16 -10 28 0 18 2 19 10 7 5 -8 10 -21 10 -28z m62 -74 c22 4 34 -18 17 -29 -23 -14 -35 -10 -47 17 -10 20 -10 24 0 17 7 -4 20 -6 30 -5z m-132 -197 c-1 -12 -5 -11 -20 8 -11 13 -20 31 -20 40 1 12 5 11 20 -8 11 -13 20 -31 20 -40z m213 18 c-6 -20 -29 -36 -38 -27 -5 4 32 48 39 48 2 0 2 -9 -1 -21z m-131 -91 c-15 -15 -24 -6 -16 16 5 12 10 14 17 7 8 -8 8 -14 -1 -23z m-138 -120 c13 -14 28 -48 21 -48 -7 0 -45 43 -45 52 0 12 10 10 24 -4z m246 -3 c0 -18 -33 -65 -46 -65 -12 0 -13 4 -3 23 6 12 16 28 22 35 10 12 27 17 27 7z m-120 -111 c0 -16 -16 -19 -25 -4 -8 13 4 32 16 25 5 -4 9 -13 9 -21z"/> <path d="M642 2168 c-15 -15 -15 -61 0 -76 29 -29 78 -7 78 34 0 43 -50 70 -78 42z"/> <path d="M2227 2163 c-13 -12 -7 -61 9 -74 33 -27 72 33 44 67 -13 15 -42 19 -53 7z"/> <path d="M1002 1994 c-41 -28 -22 -94 28 -94 50 0 69 66 28 94 -12 9 -25 16 -28 16 -3 0 -16 -7 -28 -16z"/> <path d="M1886 1995 c-31 -32 -13 -75 31 -75 16 0 25 8 29 27 12 48 -28 80 -60 48z"/> <path d="M2081 1850 c-18 -4 -45 -19 -59 -33 -24 -25 -25 -27 -12 -72 7 -26 19 -49 26 -52 24 -9 83 18 113 52 25 29 50 91 39 99 -10 9 -78 13 -107 6z m56 -47 c6 -17 -47 -65 -66 -61 -26 5 -25 44 1 62 26 18 59 18 65 -1z"/> <path d="M1854 1805 c-5 -20 1 -31 25 -54 17 -16 38 -45 46 -65 12 -28 21 -36 40 -36 30 0 32 19 6 75 -41 91 -104 133 -117 80z"/> <path d="M2647 1683 c4 -32 8 -129 8 -216 -1 -135 2 -157 14 -155 34 7 42 48 38 198 -4 156 -19 222 -50 228 -17 3 -18 -1 -10 -55z"/> <path d="M2752 1714 c-26 -18 -28 -41 -6 -72 17 -24 62 -30 82 -10 20 20 14 65 -10 82 -12 9 -27 16 -33 16 -6 0 -21 -7 -33 -16z"/> <path d="M2502 1708 c-15 -15 -15 -43 -2 -69 17 -30 77 -26 92 6 18 40 -3 75 -45 75 -18 0 -38 -5 -45 -12z m58 -39 c0 -5 -7 -9 -15 -9 -15 0 -20 12 -9 23 8 8 24 -1 24 -14z"/> <path d="M797 1676 c-77 -28 -118 -88 -119 -171 -1 -75 26 -116 176 -265 l126 -124 42 39 c99 93 212 213 239 254 42 64 41 141 -1 199 -37 52 -76 72 -136 72 -48 0 -106 -27 -123 -58 -8 -14 -15 -11 -50 21 -23 20 -49 37 -59 37 -9 0 -26 2 -37 5 -11 3 -37 -2 -58 -9z m405 -58 c14 -10 34 -38 43 -62 23 -60 9 -107 -55 -180 -74 -85 -192 -196 -208 -196 -27 0 -252 232 -252 259 0 4 15 5 34 3 26 -3 37 1 50 19 9 13 16 32 16 42 0 10 16 27 36 39 23 13 37 30 41 49 3 16 7 29 9 29 1 0 19 -10 39 -21 l36 -21 38 26 c67 47 120 51 173 14z m-338 -4 c23 -9 21 -43 -2 -37 -10 2 -30 -5 -45 -17 -21 -17 -27 -30 -27 -61 0 -21 -3 -39 -7 -39 -22 1 -37 22 -37 53 0 69 63 122 118 101z"/> <path d="M2041 1630 c-52 -24 -97 -25 -151 -4 -118 47 -230 -55 -230 -211 0 -188 155 -346 271 -278 27 16 31 16 58 0 60 -35 121 -17 185 54 125 137 126 342 2 427 -47 32 -84 36 -135 12z m99 -35 c16 -8 41 -31 56 -51 69 -90 23 -286 -84 -363 -34 -24 -54 -26 -115 -9 -36 9 -51 9 -83 -4 -26 -10 -49 -12 -68 -7 -45 12 -104 75 -120 127 -7 21 -5 22 19 16 47 -12 98 59 65 92 -13 13 16 70 58 115 20 21 30 40 26 51 -4 15 3 17 58 15 42 -1 73 4 93 16 38 20 58 21 95 2z m-289 -25 c27 -15 24 -25 -15 -48 -22 -13 -38 -33 -46 -56 -9 -28 -17 -36 -36 -36 -18 0 -24 5 -24 21 0 31 29 87 58 109 28 23 36 24 63 10z m-73 -182 c29 -29 -3 -73 -34 -47 -17 14 -18 46 -1 52 19 8 22 8 35 -5z"/> <path d="M2520 1520 c-11 -11 -20 -29 -20 -40 0 -11 9 -29 20 -40 41 -41 100 -13 100 48 0 51 -61 71 -100 32z m60 -30 c0 -11 -7 -20 -15 -20 -15 0 -21 21 -8 33 12 13 23 7 23 -13z"/> <path d="M2767 1522 c-21 -23 -22 -51 -1 -80 23 -33 73 -27 94 11 13 24 13 30 0 55 -20 34 -68 42 -93 14z m60 -46 c-4 -9 -11 -16 -17 -16 -11 0 -14 33 -3 44 11 10 26 -11 20 -28z"/> <path d="M1464 1353 l-52 -4 -6 -122 c-17 -312 -36 -718 -42 -872 -6 -151 -5 -174 11 -205 9 -19 27 -43 39 -52 47 -38 123 -12 157 54 21 40 21 45 9 242 -6 111 -19 372 -28 580 -11 233 -21 380 -27 381 -5 0 -33 0 -61 -2z m40 -150 c3 -60 9 -177 12 -260 l6 -153 -31 6 c-18 4 -37 2 -45 -5 -19 -16 -30 16 -22 67 3 20 8 118 11 217 3 99 8 192 11 207 5 24 28 40 45 31 4 -1 9 -51 13 -110z m-6 -456 c4 -20 -25 -34 -40 -19 -15 15 -1 44 19 40 10 -2 19 -11 21 -21z m-49 -49 c15 -9 26 -9 45 0 32 14 38 5 35 -52 l-3 -45 -24 24 -25 25 -33 -21 c-33 -20 -34 -20 -34 -1 0 25 11 82 16 82 3 0 13 -5 23 -12z m46 -88 c4 -6 1 -18 -6 -26 -11 -13 -14 -13 -27 0 -8 8 -11 19 -8 25 9 14 33 14 41 1z m-62 -24 c3 -8 15 -19 25 -25 16 -8 26 -6 46 10 l25 20 5 -23 c8 -38 17 -308 10 -308 -3 0 -17 9 -31 20 -28 22 -58 26 -68 10 -3 -5 -16 -15 -27 -21 -21 -11 -21 -11 -15 117 4 71 7 148 7 172 0 41 12 56 23 28z m66 -333 c11 -21 -3 -53 -23 -53 -21 0 -38 27 -31 50 8 24 40 26 54 3z m46 -60 c-9 -38 -44 -73 -71 -73 -29 0 -62 29 -70 63 -7 32 6 35 31 7 24 -27 48 -25 82 5 35 31 37 31 28 -2z"/> <path d="M2660 1255 c-122 -56 -167 -96 -215 -187 -33 -62 -39 -85 -43 -151 -3 -44 1 -104 8 -138 12 -57 12 -62 -9 -89 -41 -56 -18 -67 45 -21 21 15 57 32 79 35 55 10 138 60 175 104 57 69 120 238 120 322 0 52 -34 165 -51 167 -8 1 -57 -17 -109 -42z m109 -42 c14 -48 14 -139 1 -163 -10 -18 -12 -18 -39 -2 -32 18 -32 20 -8 76 20 45 22 93 5 98 -6 2 -8 10 -4 16 14 23 35 12 45 -25z m-65 -40 c-66 -153 -74 -179 -51 -170 6 3 29 12 50 21 33 14 37 15 37 1 0 -13 -53 -44 -102 -59 -9 -3 -29 -29 -44 -58 -40 -80 -112 -188 -130 -195 -8 -3 -20 -1 -26 5 -7 7 3 29 31 71 23 33 78 136 121 228 86 178 95 193 116 193 12 0 11 -7 -2 -37z m-74 11 c0 -20 -172 -354 -182 -354 -17 0 -22 78 -8 132 13 51 55 134 84 167 35 40 106 77 106 55z m105 -241 c-22 -88 -175 -235 -175 -168 0 8 3 15 8 15 4 0 14 15 21 33 27 60 63 106 100 126 49 26 54 26 46 -6z"/> <path d="M119 1263 c-17 -42 -5 -181 19 -236 41 -92 117 -165 193 -184 27 -7 44 -23 79 -75 58 -86 79 -108 102 -108 28 0 22 21 -25 85 -62 86 -61 82 -36 116 46 65 61 171 38 281 -15 74 -39 136 -55 142 -15 6 -60 -44 -80 -89 -7 -16 -23 -53 -35 -82 -12 -29 -25 -50 -29 -48 -4 3 -17 31 -29 63 -21 55 -101 162 -122 162 -5 0 -14 -12 -20 -27z m327 -100 c-7 -7 -46 21 -46 32 0 6 6 17 13 24 10 10 15 6 25 -20 7 -17 11 -33 8 -36z m-275 45 c1 -7 2 -17 3 -23 2 -17 108 -175 117 -175 5 0 12 -12 16 -27 3 -16 15 -41 25 -58 27 -45 24 -56 -11 -44 -17 6 -36 17 -42 26 -11 12 -10 17 5 25 15 9 13 14 -21 51 -21 23 -51 71 -67 107 -16 36 -32 73 -37 82 -5 10 -9 25 -9 33 0 18 19 20 21 3z m245 -65 c-3 -16 -9 -76 -12 -135 -4 -60 -10 -108 -14 -108 -36 0 -42 128 -9 215 21 57 46 76 35 28z m42 -157 c-4 -27 -12 -54 -18 -60 -9 -8 -10 10 -5 69 4 44 10 85 13 90 11 18 18 -49 10 -99z m-32 -98 c4 -6 3 -8 -3 -5 -6 4 -13 -2 -16 -13 -3 -13 -10 -18 -21 -14 -9 3 -16 10 -16 16 0 5 4 7 9 4 5 -3 14 1 21 9 15 18 17 18 26 3z"/> <path d="M1842 1033 c-22 -8 -33 -40 -22 -67 13 -36 57 -36 70 0 15 39 -13 79 -48 67z"/> <path d="M1050 1011 c-20 -39 22 -82 60 -61 22 12 27 49 8 68 -18 18 -56 14 -68 -7z"/> <path d="M890 985 c-26 -32 13 -81 48 -59 34 22 22 74 -18 74 -10 0 -23 -7 -30 -15z"/> <path d="M2007 994 c-13 -13 -7 -51 9 -65 23 -19 49 1 49 37 0 24 -5 30 -25 32 -14 2 -29 0 -33 -4z"/> <path d="M1713 909 c-25 -9 -30 -38 -11 -57 17 -17 53 -15 68 3 25 30 -16 70 -57 54z"/> <path d="M1180 895 c-26 -32 13 -81 48 -59 21 14 28 54 10 65 -20 13 -44 11 -58 -6z"/> <path d="M1022 888 c-32 -32 4 -87 48 -73 24 8 34 39 20 65 -12 22 -49 27 -68 8z"/> <path d="M1872 888 c-28 -28 0 -88 42 -88 25 0 42 44 28 75 -13 27 -49 34 -70 13z"/> <path d="M1749 769 c-23 -23 -22 -57 3 -73 36 -22 77 51 46 82 -17 17 -25 15 -49 -9z"/> <path d="M614 755 c-16 -25 -16 -27 3 -53 27 -36 54 -38 83 -7 23 24 24 28 9 53 -21 39 -72 43 -95 7z"/> <path d="M1142 768 c-17 -17 -15 -35 8 -58 27 -27 48 -25 61 4 22 47 -33 90 -69 54z"/> <path d="M2242 768 c-21 -21 -14 -66 13 -84 23 -15 27 -15 50 0 27 18 34 63 13 84 -15 15 -61 15 -76 0z"/> <path d="M290 750 c-11 -7 -12 -14 -4 -27 6 -9 15 -18 21 -20 16 -6 57 32 49 45 -9 14 -45 15 -66 2z"/> <path d="M379 624 c-9 -11 -10 -20 -2 -32 25 -41 86 -14 63 27 -13 25 -42 27 -61 5z"/> <path d="M2506 624 c-19 -19 -20 -36 -4 -52 18 -18 46 -14 58 9 9 16 8 25 -6 40 -21 23 -28 24 -48 3z"/> <path d="M760 600 c-32 -32 -14 -77 40 -100 19 -8 30 -20 30 -32 0 -11 -3 -18 -7 -16 -5 2 -36 18 -70 34 -34 17 -77 47 -96 67 -38 40 -62 45 -107 22 -40 -20 -40 -57 -1 -96 32 -31 66 -37 96 -15 19 13 48 7 138 -29 31 -13 18 -25 -21 -19 -46 7 -72 -13 -72 -55 0 -34 17 -51 50 -51 31 0 49 13 79 57 l22 33 37 -19 c20 -10 54 -24 75 -30 60 -20 43 -46 -28 -42 -51 2 -81 -24 -71 -63 15 -62 78 -55 139 15 l42 48 73 -27 c81 -30 94 -52 32 -52 -33 0 -42 -4 -51 -24 -14 -31 7 -80 37 -84 29 -4 72 33 76 66 3 27 15 32 51 17 13 -6 17 -2 17 16 0 12 -7 31 -16 41 -12 12 -17 36 -17 75 0 32 -6 70 -13 85 -18 35 -68 47 -95 22 -31 -28 -24 -58 22 -97 61 -50 46 -61 -31 -24 l-65 32 -3 65 c-5 96 -53 139 -102 90 -28 -28 -25 -48 15 -86 51 -47 43 -58 -20 -27 -61 30 -75 55 -75 133 0 51 -16 74 -62 85 -19 5 -32 1 -48 -15z m67 -45 c3 -9 3 -19 -1 -22 -7 -7 -36 16 -36 28 0 15 30 10 37 -6z m-207 -28 c0 -8 -3 -17 -7 -20 -9 -9 -34 13 -27 24 8 14 34 11 34 -4z m390 -73 c0 -16 -16 -19 -25 -4 -8 13 4 32 16 25 5 -4 9 -13 9 -21z m178 -74 c3 -21 2 -22 -12 -11 -19 16 -21 44 -3 39 6 -3 14 -15 15 -28z m-418 -9 c0 -5 -7 -11 -15 -15 -9 -3 -15 0 -15 9 0 8 7 15 15 15 8 0 15 -4 15 -9z m156 -107 c-5 -14 -9 -15 -19 -5 -9 9 -9 14 3 21 18 11 24 6 16 -16z m234 -73 c0 -14 -18 -23 -30 -16 -6 4 -8 11 -5 16 8 12 35 12 35 0z"/> <path d="M2070 565 c-136 -29 -271 -100 -325 -171 -33 -44 -75 -133 -75 -161 0 -21 4 -19 63 21 34 24 81 53 104 66 32 17 43 30 47 55 4 18 16 45 28 60 27 34 44 19 23 -21 -14 -27 -20 -54 -11 -54 2 0 36 15 77 34 107 49 226 89 244 83 30 -12 14 -25 -67 -57 -240 -95 -511 -249 -485 -276 5 -5 61 -9 125 -8 108 0 123 3 199 33 146 57 263 159 379 327 23 33 34 58 28 63 -17 17 -283 22 -354 6z m279 -34 c20 -13 7 -38 -67 -126 -118 -139 -296 -235 -438 -235 -73 0 -70 16 11 60 36 19 65 38 65 43 0 4 6 7 14 7 8 0 42 13 77 29 35 15 106 46 157 67 53 22 99 48 107 60 13 20 12 25 -6 48 -28 36 -60 33 -181 -15 l-102 -41 -18 22 c-10 12 -18 26 -18 30 0 8 61 36 110 49 44 12 271 14 289 2z m-494 -134 c-5 -17 -24 -37 -56 -57 -65 -40 -66 -17 -2 51 48 51 69 53 58 6z"/> </g> </svg> 