<?xml version="1.0" standalone="no"?>
<!DOCTYPE svg PUBLIC "-//W3C//DTD SVG 20010904//EN"
 "http://www.w3.org/TR/2001/REC-SVG-20010904/DTD/svg10.dtd">
<svg version="1.0" xmlns="http://www.w3.org/2000/svg"
 width="500.000000pt" height="500.000000pt" viewBox="0 0 500.000000 500.000000"
 preserveAspectRatio="xMidYMid meet">

<g transform="translate(0.000000,500.000000) scale(0.100000,-0.100000)"
fill="#000000" stroke="none">
<path d="M2310 4006 c-169 -38 -322 -121 -449 -246 -278 -271 -349 -693 -176
-1045 101 -207 269 -361 488 -449 158 -63 378 -75 553 -31 419 106 704 493
681 925 -18 334 -203 618 -500 767 -136 68 -249 93 -411 92 -72 -1 -156 -7
-186 -13z m461 -45 c281 -91 496 -314 585 -606 25 -81 27 -105 27 -240 0 -134
-2 -159 -26 -237 -80 -261 -234 -445 -472 -565 -230 -116 -540 -116 -770 0
-247 124 -413 330 -481 597 -15 58 -19 108 -18 215 1 122 4 152 28 230 51 167
159 336 284 441 105 89 276 170 410 194 26 5 112 7 192 6 130 -3 155 -7 241
-35z"/>
<path d="M2340 3934 c-51 -10 -157 -48 -215 -77 -84 -42 -132 -76 -207 -149
-301 -293 -333 -767 -75 -1103 180 -234 490 -360 777 -315 410 65 710 410 710
818 0 372 -215 672 -575 800 -61 22 -89 25 -230 28 -88 1 -171 0 -185 -2z
m355 -29 c220 -51 440 -230 540 -440 49 -102 66 -175 72 -311 12 -255 -59
-436 -242 -620 -154 -155 -345 -234 -565 -234 -220 0 -411 79 -565 234 -171
172 -245 347 -245 581 0 230 75 411 237 573 169 168 367 247 598 238 55 -3
132 -12 170 -21z"/>
<path d="M2890 3480 c-1 -85 -67 -162 -213 -246 -104 -60 -169 -122 -196 -185
-24 -56 -43 -187 -35 -246 13 -92 11 -92 64 -7 26 44 79 113 116 154 124 139
254 272 254 262 0 -14 -82 -124 -172 -229 -140 -164 -203 -268 -234 -386 -22
-83 -18 -96 15 -50 41 56 95 99 160 124 120 47 211 101 256 151 146 163 157
373 32 613 -42 81 -47 85 -47 45z"/>
<path d="M2033 3379 c-75 -157 -81 -257 -25 -372 41 -83 86 -120 216 -181 62
-29 111 -59 134 -83 l35 -38 -6 40 c-11 65 -71 174 -148 265 -89 106 -159 199
-159 212 0 25 249 -255 290 -326 l28 -49 7 56 c17 134 -30 247 -127 306 -155
94 -192 131 -208 206 -6 29 -7 28 -37 -36z"/>
<path d="M2567 1982 c-25 -28 -22 -87 5 -106 70 -49 150 41 93 104 -23 25 -76
26 -98 2z"/>
<path d="M3087 1982 c-25 -28 -22 -87 5 -106 70 -49 150 41 93 104 -23 25 -76
26 -98 2z"/>
<path d="M780 1640 l0 -290 65 0 65 0 2 176 3 177 144 -177 145 -176 58 0 58
0 0 290 0 290 -70 0 -70 0 -2 -172 -3 -171 -140 171 -139 172 -58 0 -58 0 0
-290z"/>
<path d="M1940 1845 l0 -55 -35 0 -35 0 0 -50 0 -50 35 0 35 0 0 -115 c0 -133
12 -175 60 -204 18 -10 52 -22 75 -26 44 -6 119 8 130 25 3 5 -2 27 -10 48
-16 39 -18 40 -56 35 -63 -9 -69 3 -69 128 l0 109 55 0 55 0 0 50 0 50 -55 0
-55 0 0 55 0 55 -65 0 -65 0 0 -55z"/>
<path d="M2770 1845 l0 -55 -35 0 -35 0 0 -50 0 -50 35 0 35 0 0 -110 c0 -166
30 -217 136 -235 47 -7 122 9 130 29 2 6 -2 27 -10 46 -13 32 -17 34 -54 32
-63 -5 -72 11 -72 134 l0 104 55 0 55 0 0 50 0 50 -55 0 -55 0 0 55 0 55 -65
0 -65 0 0 -55z"/>
<path d="M2469 1800 c-20 -3 -52 -17 -72 -29 l-37 -23 0 26 c0 25 -2 26 -60
26 l-60 0 0 -225 0 -225 65 0 65 0 0 128 c0 81 5 136 13 152 14 29 70 60 110
60 26 0 27 2 27 54 0 30 -3 57 -7 59 -5 2 -24 1 -44 -3z"/>
<path d="M3430 1799 c-71 -14 -130 -57 -162 -118 -95 -182 67 -375 277 -331
69 14 130 60 162 120 21 38 24 56 21 117 -3 60 -8 79 -33 115 -51 74 -166 116
-265 97z m110 -114 c36 -19 60 -62 60 -110 0 -127 -161 -173 -214 -61 -31 65
-10 142 47 170 40 20 70 20 107 1z"/>
<path d="M3997 1800 c-21 -4 -51 -17 -68 -29 l-29 -22 0 26 c0 24 -2 25 -65
25 l-65 0 0 -225 0 -225 64 0 64 0 4 138 c4 146 11 171 55 191 37 17 88 13
114 -8 23 -18 24 -25 27 -170 l3 -151 65 0 64 0 0 155 c0 161 -8 205 -48 248
-37 41 -114 61 -185 47z"/>
<path d="M1402 1626 c3 -159 5 -177 24 -203 64 -86 188 -104 276 -41 l28 19 0
-25 c0 -25 2 -26 60 -26 l60 0 0 225 0 225 -65 0 -65 0 0 -125 c0 -177 -19
-215 -108 -215 -68 0 -76 19 -82 189 l-5 146 -63 3 -63 3 3 -175z"/>
<path d="M2550 1575 l0 -225 65 0 65 0 0 225 0 225 -65 0 -65 0 0 -225z"/>
<path d="M3070 1575 l0 -225 65 0 65 0 0 225 0 225 -65 0 -65 0 0 -225z"/>
</g>
</svg>
